<?xml version="1.0" encoding="UTF-8" standalone="no"?>
<svg
   width="1408"
   height="768"
   viewBox="0 0 1408 768"
   version="1.1"
   id="svg40"
   sodipodi:docname="logo.svg"
   inkscape:version="1.4.4 (dcaf3e7d9e, 2026-05-05)"
   xmlns:inkscape="http://www.inkscape.org/namespaces/inkscape"
   xmlns:sodipodi="http://sodipodi.sourceforge.net/DTD/sodipodi-0.dtd"
   xmlns="http://www.w3.org/2000/svg"
   xmlns:svg="http://www.w3.org/2000/svg"
   xmlns:rdf="http://www.w3.org/1999/02/22-rdf-syntax-ns#"
   xmlns:cc="http://creativecommons.org/ns#"
   xmlns:dc="http://purl.org/dc/elements/1.1/">
  <title
     id="title40">AgentKit logo</title>
  <defs
     id="defs40" />
  <sodipodi:namedview
     id="namedview40"
     pagecolor="#ffffff"
     bordercolor="#000000"
     borderopacity="0.25"
     inkscape:showpageshadow="2"
     inkscape:pageopacity="0.0"
     inkscape:pagecheckerboard="0"
     inkscape:deskcolor="#d1d1d1"
     inkscape:zoom="1.9348958"
     inkscape:cx="704.43069"
     inkscape:cy="388.393"
     inkscape:window-width="2099"
     inkscape:window-height="1681"
     inkscape:window-x="0"
     inkscape:window-y="0"
     inkscape:window-maximized="0"
     inkscape:current-layer="svg40" />
   <g id="logo-root" fill="currentColor">
   <path
       
      d="M510.084 533.912C512.081 536.021 516.931 540.432 519.678 540.603C533.366 541.455 548.748 540.994 562.434 540.969L656.543 540.956L810.91 540.965L859.438 541.025C868.329 541.038 877.433 541.153 886.32 540.794C890.485 540.626 894.534 537.275 897.977 534.847L898.13 575.731C898.152 584.655 899.485 597.019 895.097 604.645C894.855 604.912 894.609 605.176 894.359 605.437C888.839 611.176 886.766 611.031 879.003 611.148C869.499 611.291 859.975 611.185 850.469 611.176L781.274 611.113C700.725 610.789 620.174 610.917 539.627 611.497C535.158 611.56 526.997 611.986 522.828 611.094C506.866 607.676 509.831 586.549 509.897 573.831L510.084 533.912ZM753.17 563.773C756.463 563.075 756.666 563.581 758.718 561.587C759.533 559.432 759.016 555.557 758.842 553.098C731.491 552.31 739.409 556.394 736.379 578.936C736.26 579.82 725.753 580.322 724.688 580.159C717.35 579.608 677.411 581.383 672.711 578.97C666.889 572.85 676.981 560.605 665.581 553.061L656.305 553.066C654.124 553.367 650.982 553.634 649.082 554.523C647.529 567.61 654.513 561.546 658.624 563.482C660.447 569.179 656.285 586.654 666.682 589.024C685.872 593.397 710.151 589.927 730.155 590.86C755.565 592.044 745.797 572.534 749.46 563.278C751.231 562.96 751.41 563.133 753.17 563.773ZM596.88 571.779C600.288 566.682 598.834 554.956 598.929 548.13C590.27 547.222 570.129 549.305 564.308 547.16C563.496 570.88 560.156 575.7 588.816 574.07C592.49 573.86 593.861 574.739 596.88 571.779ZM839.607 573.937C845.867 567.751 844.071 556.394 843.771 548.063C839.044 548.093 817.521 548.434 813.996 547.539C813.133 547.681 809.652 547.965 809.52 548.702C808.261 555.725 807.905 567.946 812.956 573.365C815.922 574.881 834.791 573.935 839.607 573.937Z"
     id="path40"
     inkscape:label="briefcaseBottom" />
  <path
      
     d="M686.217 155.956C697.181 159.873 716.049 152.359 725.435 159.288C728.717 161.71 728.18 167.947 728.095 171.916L812.209 171.839C823.509 171.834 834.839 171.753 846.122 171.929C853.194 172.04 859.807 173.558 863.815 179.84C866.044 183.336 866.74 186.199 866.93 190.345C867.285 198.108 867.105 205.938 867.072 213.711L867.006 253.971L867.086 312.632C867.097 324.279 867.858 341.596 865.628 352.597C863.993 354.654 859.582 359.558 857.368 360.589C850.347 363.858 831.03 360.279 825.15 363.532C825.083 363.789 825.016 364.048 824.968 364.309C824.661 365.966 824.937 367.738 825.96 369.096C828.833 372.909 847.16 370.399 852.941 371.186C857.785 371.845 862.743 373.944 865.61 378.098C869.107 383.164 893.137 500.701 895.418 514.253C895.866 516.916 896.493 520.082 895.974 522.75C895.053 527.496 891.79 530.368 887.904 532.856C870.443 533.606 848.842 533.018 831.136 533.018L722.906 533.011C656.372 533.024 586.196 534.141 519.957 532.891C516.209 530.048 511.021 524.846 512.012 519.59C519.893 477.819 528.94 436.064 537.586 394.406C538.34 390.772 539.225 386.558 540.253 383.031C541.012 380.37 542.438 377.947 544.396 375.991C551.674 368.792 572.292 370.807 582.998 370.858L583.015 362.139C560.732 361.705 540.877 368.569 540.981 338.111C541.02 296.751 540.984 255.301 540.92 213.95C540.897 199.171 536.757 173.597 557.451 172.343C570.839 171.533 584.413 171.846 597.854 171.851L679.94 171.898C679.767 163.443 678.819 161.305 686.217 155.956ZM588.44 417.651C579.757 420.652 570.738 421.843 562.435 424.671C569.564 432.469 575.588 434.638 586.097 435.863C601.526 437.66 612.204 420.96 624.344 419.248C642.131 416.739 664.875 418.235 683.234 417.924C698.449 417.667 714.671 417.789 729.796 418.337C733.561 418.474 737.846 419.565 740.923 421.816C745.983 425.261 746.796 425.415 752.632 426.76C760.526 428.579 775.714 420.568 776.094 412.008C775.576 411.338 775.384 410.771 774.843 410.754C770.799 410.631 761.149 413.731 757.434 415.159C750.426 410.299 744.233 402.079 755.016 396.806C759.899 394.419 765.441 393.706 770.537 391.9C751.363 373.446 741.122 395.101 730.57 395.535C697.208 396.908 662.313 396.04 628.811 395.762C611.416 395.507 603.989 380.711 585.803 379.023C574.218 380.898 567.56 383.076 560.563 393.261C558.37 396.454 557.309 397.605 557.007 401.586L557.586 403.142C562.578 404.734 578.517 390.844 585.174 404.275C587.246 408.455 587.677 412.99 588.44 417.651ZM729.932 495.78C731.204 494.649 732.813 493.091 732.764 491.421C732.598 485.738 733.963 454.953 731.972 451.67C726.031 447.053 688.113 449.003 678.333 449.067C673.08 454.345 674.949 463.77 675.208 470.902C675.443 477.387 673.844 488.656 676.313 494.033C680.301 497.174 722.563 495.941 729.932 495.78ZM720.732 242.514C728.13 227.71 725.793 226.351 722.859 211.953C722.01 207.789 732.055 209.876 731.991 202.459C730.529 199.964 729.757 199.83 726.814 198.499C721.712 204.102 725.339 206.209 719.573 208.574C710.753 202.813 704.4 198.928 693.306 201.036C679.413 203.677 671.53 219.269 674.559 232.487C676.09 238.986 680.205 244.58 685.953 247.976C692.246 251.773 699.799 252.887 706.92 251.07C709.017 250.519 711.473 249.311 713.446 248.352C717.909 247.207 717.213 250.933 720.155 253.723C724.127 257.487 734.364 274.517 740.915 266.224C745.647 260.233 725.355 244.446 720.732 242.514ZM862.382 522.342C865.951 519.735 866.225 518.665 868.174 514.657C866.841 502.218 865.847 488.965 863.85 476.598C863.264 472.967 857.681 468.98 857.198 465.127C856.128 458.999 864.981 455.249 859.489 450.112C855.902 446.758 838.977 448.055 833.714 448.4C830.701 449.991 831.007 449.305 829.342 451.875C829.06 459.247 841.248 459.023 830.316 475.916C831.371 485.606 832.745 510.322 834.817 518.161C841.962 526.056 853.153 527.268 862.382 522.342ZM570.035 343.915L642.969 343.873C642.884 333.581 642.879 323.289 642.954 312.996C618.776 313.001 594.148 312.759 570.007 313.071L570.035 343.915ZM766.141 232.262C766.014 242.512 765.978 252.764 766.033 263.016C787.35 262.836 808.667 262.792 829.984 262.885L838.006 262.896L838.039 232.021L779.162 232.046L766.141 232.262ZM786.254 387.187C785.66 400.089 787.421 410.164 787.109 422.314C796.737 437.246 787.449 436.003 788.802 444.318C792.037 446.831 803.325 445.97 807.984 445.944C810.373 445.98 812.67 446.329 814.479 444.828C815.812 442.496 815.717 443.362 815.585 441.134C808.307 430.704 810.297 433.125 814.663 421.773C815.899 418.557 814.284 405.238 814.174 400.862C813.801 385.925 811.857 379.138 795.331 380.306C790.846 382.146 789.435 383.497 786.254 387.187ZM774.106 228.969L826.547 228.969L829.426 228.789C830.605 226.717 829.888 204.953 829.819 201.127C813.118 200.951 794.697 200.731 778.032 201.104C775.271 201.468 775.917 200.951 774.562 202.629C773.206 208.983 774.156 222.02 774.106 228.969ZM578.165 283.238C578.11 287.736 577.39 306.437 578.917 309.449L580.231 310.017L633.962 310.008C633.834 301.464 634.271 294.158 634.895 285.669C635.005 284.182 634.496 283.306 633.558 282.37L633.381 282.349C624.571 284.044 589.668 282.911 578.165 283.238ZM620.094 370.94L787.856 370.863C787.851 368.199 787.95 364.709 787.797 362.118L680.602 362.115C660.819 362.117 639.918 361.782 620.205 362.274L620.094 370.94ZM645.409 484.09C635.044 495.085 621.213 505.067 610.562 515.994C595.44 516.251 574.605 516.684 559.734 516.064C558.945 515.331 555.761 512.361 555.027 512.145C544.511 509.043 540.542 525.887 554.136 526.199C557.096 524.185 557.605 523.686 559.983 520.995L612.413 520.979C617.339 516.317 644.653 491.409 648.941 488.911C653.196 488.947 668.642 489.661 671.203 488.003L671.576 487.236C669.962 482.991 660.839 482.651 657.231 483.664C652.88 484.014 649.776 484.119 645.409 484.09ZM566.679 451.867C578.921 451.87 591.654 451.683 603.851 451.886C608.725 454.679 625.179 470.437 629.469 474.992L660.516 474.969C662.849 475.006 668.918 475.356 670.761 474.629C670.912 472.726 671.293 471.831 670.56 470.278C661.239 469.275 642.883 470.455 632.473 470.054C627.736 466.888 612.012 451.636 607.473 446.987L565.705 447.028C561.819 441.837 561.913 442.951 555.566 443.067C549.684 448.512 550.32 456.166 559.508 456.663C562.306 456.814 564.782 453.825 566.679 451.867ZM796.348 508.453C798.04 513.421 799.711 522.54 803.351 524.859C805.361 525.057 806.153 525.061 808.17 524.928C809.59 519.399 810.982 513.862 812.346 508.318C811.128 505.745 809 501.554 808.619 498.839C806.424 483.177 807.451 467.049 805.446 451.398C805.364 450.754 798.995 449.959 798.296 449.884C797.223 468.867 803.782 490.65 796.348 508.453ZM690.813 343.859C690.999 338.6 691.016 333.336 690.864 328.076C685.872 328.083 680.584 328.002 675.622 328.135C674.732 331.545 675.104 339.897 675.104 343.891L690.813 343.859ZM638.36 434.52C640.278 437.225 641.679 439.341 644.067 441.69L644.203 460.871C649.615 460.944 669.058 462.019 671.924 459.292C670.747 457.488 670.546 456.446 668.278 456.143C661.982 455.3 655.343 456.088 649.011 456.065L648.977 441.449C656.207 435.895 655.241 428.108 645.787 428.085C644.902 428.074 644.016 428.1 643.133 428.164C641.537 430.229 639.819 432.374 638.36 434.52ZM675.189 297.836L689.047 297.844L690.413 297.678C691.469 295.198 690.94 285.277 690.855 282.055C686.831 282.061 681.88 281.933 677.939 282.239C676.604 282.814 675.755 282.825 675.463 283.926C674.474 287.649 675.024 293.933 675.189 297.836ZM595.123 255.038L605.018 255.02L604.878 231.074L595.125 231.063L595.123 255.038ZM692.308 303.526C692.266 305.872 692.495 308.386 691.235 310.306C685.9 311.704 673.772 307.989 669.842 311.409C668.514 313.969 668.72 312.856 668.937 315.619C671.196 317.852 684.779 316.935 689.047 316.914L691.292 317.031C692.709 319.022 692.217 321.776 692.196 324.537C696.401 320.897 700.84 316.915 705.218 313.548C701.183 309.875 696.867 306.524 692.308 303.526ZM774.922 298.11C770.606 299.3 768.086 303.779 769.31 308.086C770.534 312.393 775.033 314.877 779.33 313.618C783.578 312.374 786.028 307.936 784.818 303.678C783.607 299.419 779.189 296.934 774.922 298.11ZM633.514 211.871L638.428 216.63C638.961 213.591 641.235 202.734 640.552 200.384L639.401 200.195C635.724 201.198 629.414 202.636 626.319 204.46C626.186 206.901 628.823 207.892 628.753 208.469C628.266 212.489 619.935 220.011 617.138 223.75C609.027 224.962 608.823 225.552 604.106 217.521C602.242 214.348 601.794 214 598.305 213.39C595.591 214.323 594.972 215.214 594.907 218.286C594.626 231.582 571.91 226.692 582.051 239.971C584.47 240.089 585.465 240.343 587.454 238.871C591.348 233.445 593.427 217.304 605.954 226.158C609.106 228.386 610.921 232.969 614.4 234.965C619.926 234.38 618.388 229.194 619.83 227.147C623.638 221.744 628.768 216.482 633.514 211.871ZM799.129 281.157C791.569 290.028 795.629 299.581 806.931 296.334C815.53 288.774 811.787 280.829 801.27 281.082C800.556 281.101 799.843 281.126 799.129 281.157ZM746.461 519.094C748.354 516.896 750.006 515.097 751.531 512.626C749.331 508.884 748.476 506.399 744.328 505.172C740.572 505.289 729.744 515.006 728.145 504.292C727.577 500.488 728.044 500.43 724.561 498.992C721.479 502.411 721.79 508.255 725.421 510.828C729.356 513.617 733.136 514.197 737.367 516.134C743.783 521.419 737.222 526.277 745.543 525.844C745.769 524.471 746.11 519.737 746.461 519.094ZM828.215 334.241C830.872 333.062 832.686 330.542 832.961 327.648C833.235 324.754 831.928 321.938 829.54 320.28C827.152 318.623 824.056 318.382 821.442 319.651C817.493 321.568 815.81 326.295 817.658 330.276C819.506 334.257 824.204 336.021 828.215 334.241ZM805.022 325.495C807.594 323.745 809.778 322.698 810.59 319.457C812.143 313.261 806.831 308.811 800.95 309.193C790.337 316.476 795.83 327.325 805.022 325.495ZM717.673 307.174C718.124 302.751 717.923 297.874 717.865 293.398L712.539 288.061L693.822 288.085C694.286 291.084 693.76 290.635 695.556 292.541C701.673 294.923 709.549 289.446 712.879 295.765C714.75 299.316 710.282 303.89 714.699 307.105L717.673 307.174ZM610.029 255.045L620.097 255.019C620.072 249.403 619.965 243.584 620.06 237.988L609.976 238.043L610.029 255.045ZM736.468 484.074C737.145 487.13 736.558 486.671 738.561 488.42C744.214 489.896 748.736 488.682 754.617 488.946C758.298 491.704 762.595 495.913 766.03 498.097L766.148 507.311C763.447 510.202 761.978 511.323 762.152 515.45C762.387 521.038 766.686 522.689 771.474 521.525C780.821 514.009 773.815 513.581 771.206 506.056C770.548 504.159 770.825 498.679 770.889 496.378C766.881 492.385 760.627 487.53 757.498 484.039L736.468 484.074ZM695.298 338.938L712.536 338.934C714.263 337.104 716.343 335.011 717.847 333.046C717.912 329.806 718.273 323.174 717.594 320.283L716.728 319.452C707.652 322.029 717.832 330.084 709.921 333.662C705.336 335.735 698.065 331.463 694.747 335.804L695.298 338.938ZM800.121 334.57C797.319 336.041 796.203 339.478 797.606 342.314C799.009 345.15 802.419 346.348 805.287 345.012C807.204 344.12 808.487 342.258 808.639 340.149C808.791 338.04 807.789 336.014 806.02 334.855C804.251 333.697 801.993 333.588 800.121 334.57ZM820.094 319.228C820.92 316.788 821.139 315.904 819.652 313.46C817.479 309.889 811.843 297.212 807.627 296.683C806.892 302.244 815.111 312.751 817.952 317.798C818.438 318.663 819.199 318.981 820.094 319.228ZM713.134 446.428C714.434 442.801 714.118 430.634 713.704 426.702C712.494 425.799 710.809 426.051 709.22 426.058C708.966 431.126 708.089 440.105 709.693 444.727C711.249 446.393 710.482 445.873 713.134 446.428ZM563.976 482.995C559.335 483.091 539.521 482.368 537.219 483.971C537.058 486.059 536.725 486.029 537.519 487.608C541.937 488.313 549.561 488.008 554.297 487.955L564.384 487.982C568.276 491.658 574.212 496.037 578.937 490.297C580.379 488.552 581.025 486.283 580.72 484.04C579.885 477.934 575.031 476.801 569.811 477.186C567.615 479.191 565.879 480.712 563.976 482.995ZM680.028 499.799C680.526 512.327 672.826 509.04 662.911 509.037C654.716 499.932 644.987 508.702 651.714 517.524C657.823 521.173 658.536 519.512 663.859 514.937L678.031 514.842C680.696 512.545 682.409 511.117 684.716 508.392C684.95 505.899 685.594 502.699 684.474 500.633C683.037 499.588 681.858 499.811 680.028 499.799ZM574.264 259.13C575.391 253.428 575.615 205.671 573.861 201.532C572.65 200.296 572.606 200.177 571.009 199.64C569.46 203.613 569.689 256.415 570.208 263.942L642.032 263.962L641.914 259.91C639.878 258.342 582.366 259.125 574.264 259.13ZM699.381 525.705C700.304 520.718 699.093 506.224 698.855 500.42C696.78 499.834 696.275 499.885 694.104 499.935C694.063 505.253 693.648 521.169 694.379 525.374C695.944 526.349 697.438 525.906 699.381 525.705ZM787.166 329.368C789.35 328.081 793.318 326.122 794.383 324.061C794.139 322.189 794.094 322.678 792.53 320.978C790.335 322.373 786.54 324.396 785.507 326.568C785.912 328.219 785.927 328.269 787.166 329.368ZM831.4 396.757C832.325 398.324 835.072 402.99 835.416 404.485C838.318 417.077 838.058 430.985 839.782 444.09L848.206 443.842C849.01 426.502 840.883 410.97 848.944 395.844L848.637 395.214C845.987 389.688 846.038 383.477 841.46 380.369C839.082 379.838 837.675 380.065 835.26 380.254C833.078 384.292 832.214 391.934 831.4 396.757ZM667.24 432.142C666.446 434.651 666.076 434.322 666.967 436.329C671.154 438.189 676.7 434.398 679.233 440.106C680.79 443.615 679.536 446.084 684.238 446.379C687.699 432.828 677.5 432.089 667.24 432.142ZM606.545 504.823C612.102 499.369 623.202 490.659 627.371 485.833C626.932 483.788 626.194 483.225 624.794 481.737C619.636 485.61 609.125 495.255 604.58 499.969L554.966 500.068C550.146 500.086 536.531 499.007 533.118 501.101C531.96 503.208 532.123 502.313 532.276 504.522C533.141 504.677 533.823 504.845 534.703 504.864L606.545 504.823ZM787.495 301.567C789.654 300.028 793.352 297.726 794.691 295.655L794.179 294.6C793.326 294.405 792.561 294.163 791.701 294.156C789.533 295.557 786.28 297.279 785.19 299.454C785.561 301.34 785.121 300.585 786.458 301.847L787.495 301.567ZM767.496 470.043C763.113 470.086 739.307 469.396 737.392 470.929L737.176 474.22C739.086 475.496 748.201 475.014 751.094 474.967C755.515 474.901 764.476 474.49 768.392 475.393C769.644 476.907 770.677 478.927 772.738 479.119C785.639 480.321 784.922 465.249 772.861 464.772L767.496 470.043ZM831.119 311.24C833.23 310.587 834.804 308.816 835.207 306.643C835.61 304.47 834.775 302.253 833.038 300.886C831.302 299.519 828.951 299.228 826.933 300.13C824.061 301.414 822.686 304.712 823.795 307.656C824.904 310.6 828.114 312.171 831.119 311.24ZM709.011 499.861C708.995 504.107 708.707 522.469 709.272 525.516C711.126 526.055 711.473 526.066 713.408 526.06C713.881 521.744 714.396 504.455 713.76 500.407C711.661 499.867 711.187 499.859 709.011 499.861ZM777.132 326.05C771.212 331.846 774.423 339.231 782.135 337.095C788.684 331 785.633 325.687 777.132 326.05ZM786.097 307.542C784.965 313.073 788.063 313.163 792.93 315.425C794.399 309.814 791.12 309.888 786.097 307.542ZM694.082 426.085C694.051 430.563 693.098 442.272 695.247 445.393C696.82 446.235 697.045 446.09 698.911 445.863C699.011 441.383 699.501 430.588 698.87 426.679C696.935 425.922 696.134 426.067 694.082 426.085ZM587.297 254.98L589.313 254.761C590.996 251.157 590.948 247.697 588.668 244.401C587.313 243.985 585.612 243.388 584.239 243.216C582.617 243.718 581.432 243.639 580.57 245.213C578.732 248.567 578.324 253.168 582.529 255.077L587.297 254.98ZM593.372 470.914C595.808 473.282 597.073 474.993 600.743 474.873C605.101 474.731 607.678 471.183 607.011 466.929C606.705 464.863 605.508 463.036 603.736 461.931C601.877 460.773 599.572 461.048 597.451 461.176C589.451 469.729 544.985 462.22 541.194 465.739C541.039 467.678 540.7 468.968 541.595 470.64C546.876 470.676 551.053 469.694 557.734 469.877C570.108 469.741 581.286 471.281 593.372 470.914ZM731.463 432.131C725.75 433.868 720.335 439.913 724.858 445.37L726.261 445.629C728.454 443.932 728.199 442.961 728.325 440.092C730.265 434.542 737.14 438.372 741.763 435.671C742.174 433.881 742.192 434.608 741.077 432.629C738.806 431.536 734.183 432.037 731.463 432.131ZM732.167 302.897C732.188 305.241 732.482 307.97 731.373 309.96C728.264 311.389 711.413 309.581 708.221 311.791C707.808 313.941 707.909 314.197 708.863 316.182C711.041 317.558 723.899 316.939 727.547 316.924C730.23 316.981 730.305 316.504 731.924 318.002C732.235 319.51 732.405 320.576 732.959 322.01C735.853 321.193 742.451 315.709 745.205 313.587C741.23 310.01 735.246 305.852 732.167 302.897ZM625.075 227.09L625.031 255.023L633.359 254.986L634.918 254.635C635.134 250.165 635.662 224.868 633.887 222.5C631.411 221.845 630.637 221.957 628.167 222.075L625.075 227.09ZM767.506 434.027C763.753 437.65 763.98 438.454 763.842 443.808C759.683 447.91 755.477 452.19 751.004 455.928C746.176 455.881 740.656 455.364 736.462 457.859L736.946 459.842C740.435 461.327 743.871 460.949 747.656 460.86C757.662 461.19 758.399 454.735 765.525 449.016C768.259 446.821 778.529 447.03 778.478 441.544C777.008 434.554 772.671 433.843 767.506 434.027Z"
     id="path1"
     inkscape:label="briefcaseInner" />
  <path
      
     d="M607.087 395.474C608.329 395.147 607.666 395.18 609.113 395.753C611.043 399.242 613.954 410.325 614.618 414.383C612.564 417.243 605.46 418.23 601.754 419.092L600.207 419.187C597.833 417.204 594.656 403.752 593.263 399.503C597.934 397.622 602.211 396.682 607.087 395.474ZM601.994 415.789C604.514 415.069 609.011 414.081 610.851 412.495L610.902 411.438L609.314 410.052C606.737 410.804 601.698 411.857 600.34 413.896L600.565 414.96L601.994 415.789ZM600.341 410.035C602.714 409.358 607.985 408.277 609.16 406.453L608.775 404.617L607.589 404.39C605.101 405.065 601.002 405.845 599.369 407.595C599.442 409.169 599.334 408.603 600.341 410.035ZM599.101 404.233C601.955 403.575 604.302 403.228 606.776 401.655L607.516 400.338C606.59 398.994 607.178 399.339 605.948 398.863C603.343 399.648 599.337 400.474 597.606 402.303C598.195 403.876 597.719 403.249 599.101 404.233Z"
     id="path2"
     inkscape:label="wrenchKnurl" />
  <path
      
     d="M684.911 457.961L723.115 457.846C723.158 465.733 723.588 479.709 722.887 487.122C712.009 486.493 696.024 487.031 684.935 487.142L684.911 457.961Z"
     id="path3"
     inkscape:label="cpuCenter" />
  <path
      
     d="M698.383 206.417C709.271 205.669 718.735 213.816 719.616 224.695C720.497 235.574 712.466 245.138 701.6 246.152C694.452 246.819 687.498 243.59 683.394 237.698C679.29 231.807 678.671 224.164 681.774 217.69C684.876 211.215 691.221 206.909 698.383 206.417ZM687.739 231.724C689.396 230.133 690.468 228.795 692.753 228.42C700.071 230.103 697.708 238.11 703.475 236.704C708.832 232.662 705.509 226.157 711.942 222.488C713.815 221.42 714.553 221.085 715.072 219.314C714.097 215.636 712.913 215.129 709.31 214.087C706.017 217.203 706.934 227.215 700.822 229.591C695.408 228.632 697.337 221.855 692.622 220.016C688.124 221.053 684.974 229.507 683.613 233.647L684.235 234.518C686.07 233.945 686.481 233.18 687.739 231.724Z"
     id="path4"
     inkscape:label="magnifierGraph" />
  <path
      
     d="M839.801 474.678C841.007 474.764 841.443 474.996 842.547 475.416C844.58 478.721 847.768 514.027 846.063 517.425L843.648 516.896C841.387 513.808 838.275 477.64 839.801 474.678Z"
     id="path5"
     inkscape:label="screwdriverHandle0" />
  <path
      
     d="M851.333 474.814C853.992 475.083 854.057 474.616 855.579 476.229C856.967 484.53 859.349 509.624 859.095 517.638L855.688 516.847C854.237 514.04 851.259 479.421 851.333 474.814Z"
     id="path6"
     inkscape:label="screwdriverHandle1" />
  <path
      
     d="M575.089 316.444L577.411 317.143C579.019 320.595 578.187 336.696 577.761 340.877C577.127 340.632 576.295 340.144 575.673 339.811C574.029 335.972 574.926 321.373 575.089 316.444Z"
     id="path7"
     inkscape:label="crateLeftBottom0" />
  <path
      
     d="M583.041 316.298L585.235 317.126C586.904 320.931 586.329 336.119 585.407 340.187L583.721 339.992C582.219 337.027 582.962 320.637 583.041 316.298Z"
     id="path11"
     inkscape:label="crateLeftBottom1" />
  <path
      
     d="M590.012 316.373C590.679 316.507 592.125 316.803 592.337 317.342C593.998 321.568 593.165 336.109 593.069 340.471C591.081 340.133 591.786 340.52 590.361 339.145C589.308 334.246 589.877 322.01 590.012 316.373Z"
     id="path8"
     inkscape:label="crateLeftBottom2" />
  <path
      
     fill-opacity="0.98039216"
     d="M598.157 316.476L599.146 316.978C600.923 319.755 600.011 336.249 599.88 340.299L598.887 340.055C597.325 337.72 598.094 320.444 598.157 316.476Z"
     id="path15"
     inkscape:label="crateLeftBottom3" />
  <path
      
     d="M605.04 316.3L607.235 317.126C608.934 320.567 607.959 336.263 607.768 340.819C606.443 340.428 606.459 340.338 605.456 339.463C604.343 335.047 604.909 321.583 605.04 316.3Z"
     id="path9"
     inkscape:label="crateLeftBottom4" />
  <path
      
     d="M613.229 316.488L614.474 317.139C615.854 320.11 615.436 337.6 614.377 340.978L612.844 339.191C612.027 334.148 610.594 320.685 613.229 316.488Z"
     id="path13"
     inkscape:label="crateLeftBottom5" />
  <path
      
     d="M620.099 316.263L622.32 317.155C623.835 320.943 623.008 336.009 622.863 340.877C621.507 340.449 621.552 340.411 620.518 339.54C619.368 335.004 619.957 321.647 620.099 316.263Z"
     id="path12"
     inkscape:label="crateLeftBottom6" />
  <path
      
     d="M628.25 316.505C631.176 318.599 630.74 337.985 628.837 340.971C625.871 333.519 627.985 324.968 628.25 316.505Z"
     id="path14"
     inkscape:label="crateLeftBottom7" />
  <path
      
     d="M635.139 316.223L637.263 317.01C638.924 320.327 638.065 336.269 637.941 340.861L635.818 339.959C634.176 336.379 635.01 320.978 635.139 316.223Z"
     id="path10"
     inkscape:label="crateLeftBottom8" />
  <path
      
     d="M583.616 286.179L585.184 286.925C586.362 290.563 586.027 302.312 585.98 306.775C585.009 306.446 583.882 306.308 583.603 305.552C582.097 301.47 582.761 289.988 583.616 286.179Z"
     id="path36"
     inkscape:label="crateLeftBottom0" />
  <path
      
     d="M590.337 286.172L592.188 286.879C594.034 289.708 593.143 302.437 593.01 306.596L590.876 305.957C588.878 302.983 589.947 290.14 590.337 286.172Z"
     id="path32"
     inkscape:label="crateLeftTop1" />
  <path
      
     fill-opacity="0.98039216"
     d="M598.311 286.359C601.349 287.896 600.051 302.577 599.949 306.422L598.507 305.671C597.489 301.649 598.123 290.786 598.311 286.359Z"
     id="path37"
     inkscape:label="crateLeftTop2" />
  <path
      
     d="M605.329 286.175C606.091 286.442 607.108 286.618 607.344 287.233C608.919 291.322 608.055 303.252 607.51 307.12L605.846 306.15C604.057 303.385 604.993 289.926 605.329 286.175Z"
     id="path33"
     inkscape:label="crateLeftTop3" />
  <path
      
     d="M612.315 286.174L614.198 286.878C616.009 289.388 615.295 301.757 614.805 305.067L613.776 305.259L612.795 305.421C612.598 297.843 611.285 295.249 612.315 286.174Z"
     id="path35"
     inkscape:label="crateLeftTop4" />
  <path
      
     d="M620.195 286.167C620.872 286.407 621.728 286.84 622.4 287.151C623.698 290.974 623.087 302.4 622.973 306.712L620.86 305.949C619.129 302.628 620.024 290.597 620.195 286.167Z"
     id="path34"
     inkscape:label="crateLeftTop5" />
  <path
      
     d="M628.413 286.367C631.08 288.359 629.909 302.463 629.813 306.433C626.771 304.262 628.135 290.417 628.413 286.367Z"
     id="path38"
     inkscape:label="crateLeftTop6" />
  <path
      
     d="M771.199 235.308L773.374 236.037C774.936 239.675 774.595 255.857 773.168 259.31L771.81 259.011C770.065 255.344 770.952 240.078 771.199 235.308Z"
     id="path20"
     inkscape:label="crateRightBottom0" />
  <path
      
     d="M778.207 235.154C779.579 235.551 779.525 235.57 780.586 236.4C781.68 241.152 781.111 254.276 780.973 259.832L778.811 258.93C777.149 255.168 778.053 240.043 778.207 235.154Z"
     id="path22"
     inkscape:label="crateRightBottom1" />
  <path
      
     d="M786.238 235.393C789.636 237.256 787.923 254.943 787.784 259.607L786.706 258.859C785.209 256.205 786.014 239.398 786.238 235.393Z"
     id="path24"
     inkscape:label="crateRightBottom2" />
  <path
      
     d="M793.197 235.309L795.376 236.039C796.972 239.318 796.043 255.396 795.848 259.856L793.757 258.861C792.056 254.717 792.99 240.293 793.197 235.309Z"
     id="path18"
     inkscape:label="crateRightBottom3" />
  <path
      
     d="M800.213 235.154L802.418 236.107C803.904 239.979 802.995 254.655 802.802 259.561C799.767 257.825 800.042 239.202 800.213 235.154Z"
     id="path23"
     inkscape:label="crateRightBottom4" />
  <path
      
     d="M808.164 235.308L810.266 235.947C812.085 239.127 811.055 255.297 810.899 259.732L808.732 258.885C806.962 255.229 807.97 240.007 808.164 235.308Z"
     id="path16"
     inkscape:label="crateRightBottom5" />
  <path
      
     d="M815.242 235.642L817.367 236.069C818.868 239.384 818.615 256.482 817.229 260.007C813.631 256.546 814.923 240.824 815.242 235.642Z"
     id="path21"
     inkscape:label="crateRightBottom6" />
  <path
      
     d="M823.059 235.267C824.572 235.623 824.497 235.582 825.604 236.675C826.678 241.814 826.174 253.477 826.036 259.231C824.855 259.264 824.661 259.08 823.578 258.634C822.163 254.391 822.897 240.505 823.059 235.267Z"
     id="path19"
     inkscape:label="crateRightBottom7" />
  <path
      
     d="M831.392 235.426C834.364 236.852 833.608 257.009 832.284 259.896C831.337 259.296 830.256 258.821 830.159 257.491C829.808 252.678 828.821 239.102 831.392 235.426Z"
     id="path17"
     inkscape:label="crateRightBottom8" />
  <path
      
     d="M778.847 205.295L779.929 205.774C782.076 208.742 780.973 221.852 780.736 226.096C779.908 225.624 778.932 225.288 778.677 224.518C777.318 220.404 777.564 208.977 778.847 205.295Z"
     id="path29"
     inkscape:label="crateRightTop0" />
  <path
      
     d="M788.296 205.414C787.827 210.308 788.896 223.037 786.838 225.868C785.473 222.987 785.53 210.427 786.38 206.802C786.526 206.179 787.533 205.844 788.296 205.414Z"
     id="path31"
     inkscape:label="crateRightTop1" />
  <path
      
     d="M793.853 205.221C794.604 205.601 795.61 205.917 795.755 206.777C796.501 211.189 796.717 222.238 795.152 225.916C791.72 223.437 792.216 208.219 793.853 205.221Z"
     id="path26"
     inkscape:label="crateRightTop2" />
  <path
      
     d="M800.864 205.289L801.95 205.773C804.064 208.752 802.974 221.844 802.735 226.076C801.91 225.607 800.931 225.27 800.681 224.506C799.337 220.391 799.607 208.974 800.864 205.289Z"
     id="path30"
     inkscape:label="crateRightTop3" />
  <path
      
     d="M808.53 205.28L810.16 205.927C812.043 208.468 811.107 221.735 810.971 225.708L808.834 224.905C806.956 221.812 807.678 208.964 808.53 205.28Z"
     id="path25"
     inkscape:label="crateRightTop4" />
  <path
      
     d="M815.798 205.195C816.554 205.58 817.594 205.919 817.747 206.777C818.531 211.181 818.73 222.244 817.148 225.918C813.55 223.294 814.527 209.027 815.798 205.195Z"
     id="path28"
     inkscape:label="crateRightTop5" />
  <path
      
     d="M823.701 205.214L824.896 205.718C826.954 208.756 826.123 220.916 826.022 225.347L823.949 224.937C821.921 222.045 822.63 208.689 823.701 205.214Z"
     id="path27"
     inkscape:label="crateRightTop6" />
   </g>
   <metadata
      id="metadata40">
    <rdf:RDF>
      <cc:Work
         rdf:about="">
        <dc:title>AgentKit logo</dc:title>
        <dc:creator>
          <cc:Agent>
            <dc:title>Luke Carrier</dc:title>
          </cc:Agent>
        </dc:creator>
        <dc:description>AgentKit logo, depicting a briefcase filled with tools for maintaining and troubleshooting a software engineering workspace backed by AI agents.</dc:description>
      </cc:Work>
    </rdf:RDF>
  </metadata>
</svg>
